<svg width="64" height="64" fill="none" xmlns="http://www.w3.org/2000/svg"><path d="M64 0v41.25l-3.75 3.875H3.75L0 41.25V0h64z" fill="#474F54"/><path d="M64 0v41.25l-3.75 3.875H32V0h32z" fill="#32393F"/><path d="M22.625 50.875h18.75v11.25h-18.75v-11.25z" fill="#DADAE5"/><path d="M32 50.875h9.375v11.25H32v-11.25z" fill="#C9C9D3"/><path d="M0 41.25h64v11.5H0v-11.5z" fill="#EFEFF4"/><path d="M32 41.25h32v11.5H32v-11.5z" fill="#DADAE5"/><path d="M15.125 60.25h33.75V64h-33.75v-3.75z" fill="#EFEFF4"/><path d="M32 60.25h16.875V64H32v-3.75z" fill="#DADAE5"/><path d="M20.75 7.5c-7.236 0-13.125 5.889-13.125 13.125S13.514 33.75 20.75 33.75s13.125-5.889 13.125-13.125S27.986 7.5 20.75 7.5zm0 18.75a5.63 5.63 0 01-5.625-5.625A5.63 5.63 0 0120.75 15a5.63 5.63 0 015.625 5.625 5.63 5.63 0 01-5.625 5.625z" fill="#549EF2"/><path d="M45.125 7.5H56.5v3.75H45.125V7.5zm-7.5 0h3.75v3.75h-3.75V7.5zm7.5 15H56.5v3.75H45.125V22.5zm-7.5 0h3.75v3.75h-3.75V22.5zm0-7.5H56.5v3.75H37.625V15zm0 15H56.5v3.75H37.625V30z" fill="#377FD2"/></svg>