<svg width="64" height="64" fill="none" xmlns="http://www.w3.org/2000/svg"><path d="M64 14.454v41.788H0V14.454l3.75-3.787h56.5L64 14.454z" fill="#EFEFF4"/><path d="M64 14.454v41.788H32V10.667h28.25L64 14.454z" fill="#DADAE5"/><path d="M0 0h64v15.515H0V0z" fill="#474F54"/><path d="M32 0h32v15.515H32V0z" fill="#32393F"/><path d="M7.758 5.818h3.685v3.88H7.758v-3.88zm7.37 0h3.685v3.88h-3.685v-3.88zm7.37 0h3.684v3.88h-3.685v-3.88zm23.078 36.427V64H34.355v-3.71h-3.74V64H19.394V42.245l11.37-9.275h3.105l11.707 9.275z" fill="#FF637B"/><path d="M11.636 22.303h41.697v3.879H11.636v-3.879z" fill="#DADAE5"/><path d="M32 22.303h20.364v3.879H32v-3.879z" fill="#C9C9D3"/><path d="M45.576 42.245V64H33.939v-3.71H32V32.97h1.435l12.141 9.275z" fill="#E63950"/><path d="M30.061 45.576h3.878v3.879h-3.878v-3.88z" fill="#EFEFF4"/><path d="M32 45.576h1.939v3.879H32v-3.88z" fill="#DADAE5"/><path d="M50.424 45.779l-2.452 2.706-15.487-13.526-15.488 13.526-2.452-2.706 17.94-15.718 17.939 15.718z" fill="#676E74"/><path d="M32 30.061l18.424 15.718-2.518 2.706L32 34.959v-4.898z" fill="#474F54"/></svg>