<svg width="64" height="64" fill="none" xmlns="http://www.w3.org/2000/svg"><path d="M26.375 52.625h11.25V64h-11.25V52.625z" fill="#676E74"/><path d="M32 52.625h5.625V64H32V52.625z" fill="#333637"/><path d="M22.625 47h18.75v9.375h-18.75V47z" fill="#4C545A"/><path d="M32 47h9.375v9.375H32V47z" fill="#52585C"/><path d="M45.012 36.725c-2.325 1.913-3.637 4.612-3.637 7.425V47h-18.75v-2.85c0-2.85-1.238-5.512-3.3-7.125-5.062-3.938-7.95-9.862-7.95-16.275a20.585 20.585 0 017.613-16.013C22.7 1.737 27.238 0 32 0c1.462 0 2.962.15 4.425.45 8.1 1.688 14.475 8.45 15.9 16.663 1.275 7.5-1.425 14.85-7.313 19.612z" fill="#FFDA2D"/><path d="M45.012 36.725c-2.325 1.913-3.637 4.612-3.637 7.425V47H32V0c1.462 0 2.962.15 4.425.45 8.1 1.688 14.475 8.45 15.9 16.663 1.275 7.5-1.425 14.85-7.313 19.612z" fill="#FDBF00"/><path d="M18.875 45.125h26.25v3.75h-26.25v-3.75z" fill="#676E74"/><path d="M39.956 10.143l2.651 2.651-3.979 3.978-2.65-2.65 3.978-3.979z" fill="#FF9100"/><path d="M25.372 24.727l2.651 2.651-3.979 3.98-2.65-2.652 3.978-3.979zm4.753 3.523h3.75v5.625h-3.75V28.25z" fill="#FDBF00"/><path d="M38.628 24.727l3.979 3.979-2.65 2.651-3.98-3.979 2.651-2.651zm.872-5.852h5.625v3.75H39.5v-3.75z" fill="#FF9100"/><path d="M24.044 10.143l3.979 3.979-2.651 2.65-3.979-3.978 2.651-2.651zm-5.169 8.732H24.5v3.75h-5.625v-3.75zm11.25-11.25h3.75v5.625h-3.75V7.625z" fill="#FDBF00"/><path d="M0 18.875h7.625v3.75H0v-3.75zm6.585-4.065l-5.75-3.75 2.08-3.12 5.75 3.75-2.08 3.12zm-3.67 18.75l-2.08-3.12 5.75-3.75 2.08 3.12-5.75 3.75z" fill="#FFDA2D"/><path d="M56.375 18.875H64v3.75h-7.625v-3.75zm4.71 14.685l-5.75-3.75 2.08-3.12 5.75 3.75-2.08 3.12zm-3.67-18.75l-2.08-3.12 5.75-3.75 2.08 3.12-5.75 3.75z" fill="#FDBF00"/><path d="M32 7.625h1.875v5.625H32V7.625zm0 20.625h1.875v5.625H32V28.25z" fill="#FF9100"/><path d="M32 45.125h13.125v3.75H32v-3.75z" fill="#333637"/><path d="M32 11.375c-5.175 0-9.375 4.2-9.375 9.375s4.2 9.375 9.375 9.375 9.375-4.2 9.375-9.375-4.2-9.375-9.375-9.375z" fill="#FDBF00"/><path d="M32 30.125v-18.75c5.175 0 9.375 4.2 9.375 9.375s-4.2 9.375-9.375 9.375z" fill="#FF9100"/><path d="M30.125 18.875h3.75v3.75h-3.75v-3.75z" fill="#FFDA2D"/><path d="M32 18.875h1.875v3.75H32v-3.75z" fill="#FDBF00"/></svg>