<svg width="64" height="64" fill="none" xmlns="http://www.w3.org/2000/svg"><g clip-path="url(#clip0)"><path d="M56.842 7.158c-9.526-9.563-24.902-9.525-34.428 0-8.025 8.026-9.45 20.44-3.525 30.003l-2.513 2.55-1.356 6.144 4.214 4.214 5.093-2.408 2.512-2.55a24.254 24.254 0 0030.003-3.525c9.563-9.526 9.525-24.902 0-34.428z" fill="#676E74"/><path d="M24.327 47.661l2.512-2.55a24.254 24.254 0 0030.003-3.525c9.563-9.526 9.525-24.902 0-34.428l-40.26 40.26 2.652 2.651 5.093-2.408z" fill="#474F54"/><path d="M54.213 9.787a20.56 20.56 0 00-14.585-6.04C28.236 3.746 19 12.98 19 24.371a20.564 20.564 0 006.041 14.586 20.565 20.565 0 0014.586 6.04c11.392 0 20.626-9.234 20.626-20.626a20.558 20.558 0 00-6.041-14.585h.001z" fill="#64E1DC"/><path d="M60.254 24.372a20.562 20.562 0 00-6.041-14.585l-29.17 29.17A20.562 20.562 0 0039.627 45c11.392 0 20.626-9.235 20.626-20.627h.001z" fill="#00C8C8"/><path d="M56.239 23.41c-.184-.307-2.98-4.914-7.281-8.368-2.63-2.113-5.822-3.796-9.33-3.796-9.242 0-16.314 11.67-16.61 12.165l-.576.961.575.961c.184.31 2.98 4.916 7.28 8.37 2.63 2.112 5.823 3.795 9.33 3.795 9.243 0 16.315-11.668 16.612-12.165l.574-.96-.574-.962z" fill="#EFEFF4"/><path d="M56.24 25.333l.573-.96-.574-.962c-.184-.308-2.98-4.915-7.28-8.369l-18.66 18.66c2.63 2.113 5.821 3.796 9.33 3.796 9.241 0 16.313-11.668 16.61-12.165z" fill="#DADAE5"/><path d="M43.604 20.396a5.609 5.609 0 00-3.976-1.65 5.632 5.632 0 00-5.626 5.626c0 1.551.631 2.958 1.65 3.976a5.607 5.607 0 003.976 1.65 5.632 5.632 0 005.625-5.626c0-1.55-.63-2.957-1.649-3.976z" fill="#64E1DC"/><path d="M45.253 24.372c0-1.55-.63-2.957-1.649-3.976l-7.952 7.952a5.609 5.609 0 003.976 1.65 5.632 5.632 0 005.625-5.626z" fill="#00C8C8"/><path d="M40.954 23.046a1.875 1.875 0 10-2.657 2.647 1.875 1.875 0 002.657-2.647z" fill="#676E74"/><path d="M41.503 24.372c0-.517-.21-.986-.55-1.326l-2.65 2.652a1.875 1.875 0 003.2-1.326z" fill="#474F54"/><path d="M20.333 43.667l-3.957-3.957L0 56.049l3.975 3.976L7.951 64l16.376-16.339-3.994-3.994z" fill="#575C60"/><path d="M24.327 47.661l-3.994-3.994L3.975 60.025 7.951 64l16.376-16.339z" fill="#333637"/></g><defs><clipPath id="clip0"><path fill="#fff" d="M0 0h64v64H0z"/></clipPath></defs></svg>