<svg width="64" height="64" viewBox="0 0 64 64" fill="none" xmlns="http://www.w3.org/2000/svg">
<path d="M64 14.454V56.242H0V14.454L3.75 10.667H60.25L64 14.454Z" fill="#EFEFF4"/>
<path d="M64 14.454V56.242H32V10.667H60.25L64 14.454Z" fill="#DADAE5"/>
<path d="M0 0H64V15.515H0V0Z" fill="#474F54"/>
<path d="M32 0H64V15.515H32V0Z" fill="#32393F"/>
<path d="M7.75806 5.81812H11.4431V9.69711H7.75806V5.81812ZM15.1281 5.81812H18.8131V9.69711H15.1281V5.81812ZM22.4971 5.81812H26.1821V9.69711H22.4971V5.81812Z" fill="#FF637B"/>
<path d="M45.576 42.245V64H34.355V60.29H30.615V64H19.394V42.245L30.764 32.97H33.869L45.576 42.245Z" fill="#FF637B"/>
<path d="M11.636 22.303H53.333V26.182H11.636V22.303Z" fill="#DADAE5"/>
<path d="M32 22.303H52.364V26.182H32V22.303Z" fill="#C9C9D3"/>
<path d="M45.576 42.245V64H33.939V60.29H32V32.97H33.435L45.576 42.245Z" fill="#E63950"/>
<path d="M30.061 45.5759H33.939V49.4549H30.061V45.5759Z" fill="#EFEFF4"/>
<path d="M32 45.5759H33.939V49.4549H32V45.5759Z" fill="#DADAE5"/>
<path d="M50.4239 45.779L47.9719 48.485L32.4849 34.959L16.9969 48.485L14.5449 45.779L32.4849 30.061L50.4239 45.779Z" fill="#676E74"/>
<path d="M32 30.061L50.424 45.779L47.906 48.485L32 34.959V30.061Z" fill="#474F54"/>
</svg>
