<svg width="64" height="64" viewBox="0 0 64 64" fill="none" xmlns="http://www.w3.org/2000/svg">
<g clip-path="url(#clip0)">
<path d="M56.842 7.15801C47.316 -2.40499 31.94 -2.36699 22.414 7.15801C14.389 15.184 12.964 27.598 18.889 37.161L16.376 39.711L15.02 45.855L19.234 50.069L24.327 47.661L26.839 45.111C31.5014 48.0038 37.0069 49.2303 42.4563 48.59C47.9058 47.9498 52.9771 45.4807 56.842 41.586C66.405 32.06 66.367 16.684 56.842 7.15801V7.15801Z" fill="#676E74"/>
<path d="M24.327 47.661L26.839 45.111C31.5014 48.0038 37.0069 49.2302 42.4563 48.59C47.9058 47.9497 52.9771 45.4806 56.842 41.586C66.405 32.06 66.367 16.684 56.842 7.15796L16.582 47.418L19.234 50.069L24.327 47.661Z" fill="#474F54"/>
<path d="M54.213 9.78711C52.2998 7.8689 50.0264 6.34771 47.5234 5.31099C45.0204 4.27427 42.3372 3.74245 39.628 3.74611C28.236 3.74611 19 12.9801 19 24.3721C18.9964 27.0814 19.5283 29.7648 20.565 32.2679C21.6017 34.7711 23.1229 37.0447 25.041 38.9581C26.9545 40.8761 29.2282 42.397 31.7313 43.4336C34.2345 44.4701 36.9177 45.0018 39.627 44.9981C51.019 44.9981 60.253 35.7641 60.253 24.3721C60.2567 21.6629 59.7249 18.9797 58.6881 16.4767C57.6514 13.9737 56.1302 11.7003 54.212 9.78711H54.213Z" fill="#64E1DC"/>
<path d="M60.254 24.3721C60.2576 21.6629 59.7258 18.9797 58.6891 16.4767C57.6524 13.9737 56.1312 11.7003 54.213 9.78711L25.043 38.9571C26.956 40.8754 29.2292 42.3968 31.732 43.4338C34.2348 44.4709 36.9178 45.0032 39.627 45.0001C51.019 45.0001 60.253 35.7651 60.253 24.3731L60.254 24.3721Z" fill="#00C8C8"/>
<path d="M56.2389 23.4101C56.0549 23.1031 53.2589 18.4961 48.9579 15.0421C46.3279 12.9291 43.1359 11.2461 39.6279 11.2461C30.3859 11.2461 23.3139 22.9151 23.0179 23.4111L22.4419 24.3721L23.0169 25.3331C23.2009 25.6421 25.9969 30.2491 30.2969 33.7031C32.9279 35.8151 36.1199 37.4981 39.6269 37.4981C48.8699 37.4981 55.9419 25.8301 56.2389 25.3331L56.8129 24.3731L56.2389 23.4111V23.4101Z" fill="#EFEFF4"/>
<path d="M56.2391 25.333L56.8131 24.373L56.2391 23.411C56.0551 23.103 53.2591 18.496 48.9581 15.042L30.2981 33.702C32.9281 35.815 36.1201 37.498 39.6281 37.498C48.8701 37.498 55.9421 25.83 56.2381 25.333H56.2391Z" fill="#DADAE5"/>
<path d="M43.604 20.3961C43.0826 19.8727 42.4629 19.4575 41.7806 19.1743C41.0983 18.8912 40.3667 18.7456 39.628 18.7461C38.1363 18.7477 36.7063 19.3409 35.6515 20.3957C34.5968 21.4504 34.0035 22.8805 34.002 24.3721C34.002 25.9231 34.633 27.3301 35.652 28.3481C36.1734 28.8714 36.793 29.2866 37.4754 29.5697C38.1577 29.8529 38.8892 29.9984 39.628 29.9981C41.1194 29.9962 42.5492 29.4029 43.6037 28.3482C44.6583 27.2935 45.2514 25.8635 45.253 24.3721C45.253 22.8221 44.623 21.4151 43.604 20.3961Z" fill="#64E1DC"/>
<path d="M45.2531 24.372C45.2531 22.822 44.6231 21.415 43.6041 20.396L35.6521 28.348C36.1735 28.8713 36.7931 29.2865 37.4755 29.5697C38.1578 29.8528 38.8893 29.9984 39.6281 29.998C41.1195 29.9961 42.5494 29.4028 43.6039 28.3481C44.6584 27.2934 45.2515 25.8634 45.2531 24.372V24.372Z" fill="#00C8C8"/>
<path d="M40.9541 23.0459C40.7361 22.8271 40.4676 22.6655 40.1722 22.5755C39.8769 22.4854 39.5638 22.4696 39.2609 22.5296C38.958 22.5895 38.6746 22.7233 38.4357 22.919C38.1969 23.1148 38.0101 23.3665 37.8919 23.6517C37.7737 23.937 37.7278 24.2471 37.7581 24.5543C37.7885 24.8616 37.8942 25.1567 38.066 25.4133C38.2377 25.6699 38.4701 25.8802 38.7426 26.0254C39.0152 26.1707 39.3193 26.2464 39.6281 26.2459C39.9986 26.2453 40.3606 26.135 40.6684 25.929C40.9763 25.7229 41.2163 25.4303 41.3581 25.0881C41.4999 24.7458 41.5373 24.3692 41.4653 24.0058C41.3934 23.6424 41.2155 23.3084 40.9541 23.0459V23.0459Z" fill="#676E74"/>
<path d="M41.503 24.3719C41.503 23.8549 41.293 23.3859 40.953 23.0459L38.303 25.6979C38.5654 25.9594 38.8994 26.1373 39.2629 26.2092C39.6263 26.2811 40.0029 26.2438 40.3451 26.1019C40.6874 25.9601 40.98 25.7201 41.186 25.4123C41.3921 25.1044 41.5024 24.7424 41.503 24.3719Z" fill="#474F54"/>
<path d="M20.333 43.667L16.376 39.71L0 56.049L3.975 60.025L7.951 64L24.327 47.661L20.333 43.667Z" fill="#575C60"/>
<path d="M24.3271 47.661L20.3331 43.667L3.9751 60.025L7.9511 64L24.3271 47.661Z" fill="#333637"/>
</g>
<defs>
<clipPath id="clip0">
<rect width="64" height="64" fill="white"/>
</clipPath>
</defs>
</svg>
